<svg width="169" height="21" viewBox="0 0 169 21" fill="none" xmlns="http://www.w3.org/2000/svg">
<path d="M154.771 19.7243V0.35437H157.31L164.308 12.5196L166.404 16.5353H166.522C166.463 15.5511 166.394 14.5373 166.316 13.494C166.257 12.431 166.227 11.3877 166.227 10.3641V0.35437H168.56V19.7243H166.02L158.993 7.5295L156.896 3.54332H156.778C156.857 4.50787 156.926 5.50196 156.985 6.52557C157.064 7.54918 157.103 8.57279 157.103 9.59641V19.7243H154.771Z" fill="white"/>
<path d="M140.831 20.0785C139.217 20.0785 137.78 19.6652 136.52 18.8384C135.28 18.0116 134.306 16.8404 133.597 15.3247C132.908 13.8089 132.563 12.0176 132.563 9.95069C132.563 7.88378 132.908 6.11215 133.597 4.63578C134.306 3.13973 135.28 1.99801 136.52 1.21062C137.78 0.40354 139.217 0 140.831 0C142.465 0 143.902 0.40354 145.142 1.21062C146.382 1.99801 147.357 3.13973 148.065 4.63578C148.774 6.11215 149.128 7.88378 149.128 9.95069C149.128 12.0176 148.774 13.8089 148.065 15.3247C147.357 16.8404 146.382 18.0116 145.142 18.8384C143.902 19.6652 142.465 20.0785 140.831 20.0785ZM140.831 17.9231C141.993 17.9231 142.996 17.5983 143.843 16.9487C144.709 16.2794 145.378 15.3542 145.851 14.1731C146.323 12.9723 146.559 11.5649 146.559 9.95069C146.559 7.54914 146.038 5.64955 144.994 4.25193C143.951 2.8543 142.563 2.15549 140.831 2.15549C139.099 2.15549 137.711 2.8543 136.668 4.25193C135.624 5.64955 135.103 7.54914 135.103 9.95069C135.103 11.5649 135.339 12.9723 135.811 14.1731C136.284 15.3542 136.953 16.2794 137.819 16.9487C138.685 17.5983 139.689 17.9231 140.831 17.9231Z" fill="white"/>
<path d="M124.454 19.7243V0.35437H126.905V19.7243H124.454Z" fill="white"/>
<path d="M111.163 19.7243V2.42128H105.316V0.35437H119.489V2.42128H113.643V19.7243H111.163Z" fill="white"/>
<path d="M97.9131 19.7243V0.35437H100.364V19.7243H97.9131Z" fill="white"/>
<path d="M77.1748 19.7243V0.35437H79.6256V8.47437H88.6314V0.35437H91.1117V19.7243H88.6314V10.6003H79.6256V19.7243H77.1748Z" fill="white"/>
<path d="M58.3457 19.7243L63.9854 9.71452L58.7296 0.35437H61.4461L64.074 5.31495C64.3299 5.74802 64.5661 6.18109 64.7826 6.61415C65.0189 7.04722 65.2846 7.54918 65.5799 8.12004H65.698C65.9736 7.54918 66.2098 7.04722 66.4066 6.61415C66.6232 6.18109 66.8496 5.74802 67.0858 5.31495L69.6546 0.35437H72.253L66.9677 9.83263L72.6074 19.7243H69.8909L67.0562 14.4979C66.8003 14.0255 66.5346 13.5432 66.259 13.0511C66.0031 12.5393 65.7177 11.9881 65.4027 11.3976H65.2846C65.009 11.9881 64.7433 12.5393 64.4874 13.0511C64.2315 13.5432 63.9854 14.0255 63.7492 14.4979L60.9441 19.7243H58.3457Z" fill="white"/>
<path d="M43.5137 19.7243V0.35437H54.675V2.42128H45.9644V8.5039H53.3167V10.6003H45.9644V17.6278H54.9703V19.7243H43.5137Z" fill="white"/>
<path d="M18.3078 8.88775L17.3925 11.8405H23.2093L22.294 8.88775C21.9397 7.80509 21.605 6.73226 21.2901 5.66928C20.9751 4.58661 20.6601 3.48426 20.3452 2.36223H20.2271C19.9318 3.48426 19.6267 4.58661 19.3117 5.66928C18.9968 6.73226 18.6621 7.80509 18.3078 8.88775ZM12.4023 19.7243L18.9574 0.35437H21.733L28.288 19.7243H25.6601L23.8294 13.8188H16.7724L14.9122 19.7243H12.4023Z" fill="white"/>
<path d="M0 19.7243V0.35437H11.1613V2.42128H2.45076V8.97633H9.83258V11.0432H2.45076V19.7243H0Z" fill="white"/>
</svg>
