<svg width="76" height="10" viewBox="0 0 76 10" fill="none" xmlns="http://www.w3.org/2000/svg">
<path d="M70.7041 9.00029V1.09229H71.2801L74.6161 6.67229L75.5041 8.24429H75.5521C75.5441 7.86029 75.5281 7.47629 75.5041 7.09229C75.4881 6.70829 75.4801 6.32429 75.4801 5.94029V1.09229H76.0081V9.00029H75.4321L72.0961 3.42029L71.2081 1.84829H71.1601C71.1761 2.22429 71.1921 2.59629 71.2081 2.96429C71.2241 3.33229 71.2321 3.70829 71.2321 4.09229V9.00029H70.7041Z" fill="white"/>
<path d="M65.0235 9.14424C64.3915 9.14424 63.8315 8.97624 63.3435 8.64024C62.8555 8.29624 62.4715 7.81624 62.1915 7.20024C61.9115 6.58424 61.7715 5.85624 61.7715 5.01624C61.7715 4.18424 61.9115 3.46424 62.1915 2.85624C62.4715 2.24824 62.8555 1.78024 63.3435 1.45224C63.8315 1.11624 64.3915 0.948242 65.0235 0.948242C65.6635 0.948242 66.2275 1.11624 66.7155 1.45224C67.2035 1.78024 67.5875 2.24824 67.8675 2.85624C68.1475 3.46424 68.2875 4.18424 68.2875 5.01624C68.2875 5.85624 68.1475 6.58424 67.8675 7.20024C67.5875 7.81624 67.2035 8.29624 66.7155 8.64024C66.2275 8.97624 65.6635 9.14424 65.0235 9.14424ZM65.0235 8.64024C65.5595 8.64024 66.0275 8.49224 66.4275 8.19624C66.8275 7.89224 67.1395 7.46824 67.3635 6.92424C67.5875 6.38024 67.6995 5.74424 67.6995 5.01624C67.6995 4.28824 67.5875 3.66024 67.3635 3.13224C67.1395 2.59624 66.8275 2.18424 66.4275 1.89624C66.0275 1.60024 65.5595 1.45224 65.0235 1.45224C64.4875 1.45224 64.0195 1.60024 63.6195 1.89624C63.2195 2.18424 62.9075 2.59624 62.6835 3.13224C62.4595 3.66024 62.3475 4.28824 62.3475 5.01624C62.3475 5.74424 62.4595 6.38024 62.6835 6.92424C62.9075 7.46824 63.2195 7.89224 63.6195 8.19624C64.0195 8.49224 64.4875 8.64024 65.0235 8.64024Z" fill="white"/>
<path d="M58.793 9.00029V1.09229H59.345V9.00029H58.793Z" fill="white"/>
<path d="M53.604 9.00029V1.57229H51.084V1.09229H56.676V1.57229H54.156V9.00029H53.604Z" fill="white"/>
<path d="M48.417 9.00029V1.09229H48.969V9.00029H48.417Z" fill="white"/>
<path d="M40.8799 9.00029V1.09229H43.0159C43.8159 1.09229 44.4519 1.24829 44.9239 1.56029C45.3959 1.86429 45.6319 2.34829 45.6319 3.01229C45.6319 3.42829 45.5279 3.79229 45.3199 4.10429C45.1119 4.40829 44.8079 4.62029 44.4079 4.74029V4.78829C44.9199 4.86829 45.3319 5.07229 45.6439 5.40029C45.9559 5.72029 46.1119 6.15229 46.1119 6.69629C46.1119 7.45629 45.8439 8.03229 45.3079 8.42429C44.7799 8.80829 44.0679 9.00029 43.1719 9.00029H40.8799ZM41.4319 4.57229H42.7999C43.6079 4.57229 44.1879 4.44029 44.5399 4.17629C44.8999 3.90429 45.0799 3.53629 45.0799 3.07229C45.0799 2.51229 44.8919 2.12029 44.5159 1.89629C44.1399 1.66429 43.5879 1.54829 42.8599 1.54829H41.4319V4.57229ZM41.4319 8.54429H43.0279C43.8119 8.54429 44.4319 8.39629 44.8879 8.10029C45.3439 7.80429 45.5719 7.34029 45.5719 6.70829C45.5719 6.14029 45.3479 5.72029 44.8999 5.44829C44.4599 5.16829 43.8359 5.02829 43.0279 5.02829H41.4319V8.54429Z" fill="white"/>
<path d="M37.3965 9.00029V1.09229H37.9485V9.00029H37.3965Z" fill="white"/>
<path d="M29.1328 9.00029V1.09229H29.6848V4.56029H33.9208V1.09229H34.4728V9.00029H33.9208V5.04029H29.6848V9.00029H29.1328Z" fill="white"/>
<path d="M21.7842 9.00029L24.1602 4.90829L21.9522 1.09229H22.5522L23.8482 3.42029C23.9602 3.59629 24.0642 3.76829 24.1602 3.93629C24.2562 4.09629 24.3682 4.28429 24.4962 4.50029H24.5442C24.6562 4.28429 24.7562 4.09629 24.8442 3.93629C24.9322 3.76829 25.0282 3.59629 25.1322 3.42029L26.4282 1.09229H26.9922L24.7842 4.93229L27.1602 9.00029H26.5602L25.1802 6.57629C25.0762 6.37629 24.9642 6.17629 24.8442 5.97629C24.7242 5.77629 24.5922 5.55629 24.4482 5.31629H24.4002C24.2722 5.55629 24.1562 5.77629 24.0522 5.97629C23.9482 6.17629 23.8402 6.37629 23.7282 6.57629L22.3482 9.00029H21.7842Z" fill="white"/>
<path d="M15.9678 9.00029V1.09229H20.2998V1.57229H16.5198V4.56029H19.6878V5.04029H16.5198V8.52029H20.4198V9.00029H15.9678Z" fill="white"/>
<path d="M7.14145 4.34429L6.63745 5.82029H9.44545L8.94145 4.34429C8.78145 3.87229 8.62945 3.42029 8.48545 2.98829C8.34144 2.55629 8.20144 2.09629 8.06544 1.60828H8.01745C7.88145 2.09629 7.74145 2.55629 7.59745 2.98829C7.45345 3.42029 7.30145 3.87229 7.14145 4.34429ZM4.98145 9.00029L7.76544 1.09229H8.31744L11.1014 9.00029H10.5254L9.60145 6.28829H6.46945L5.53345 9.00029H4.98145Z" fill="white"/>
<path d="M0.164062 9.00029V1.09229H4.47206V1.57229H0.716063V4.71629H3.89606V5.19629H0.716063V9.00029H0.164062Z" fill="white"/>
</svg>
